<?xml version="1.0" encoding="UTF-8" standalone="no"?>
<svg
   xmlns:dc="http://purl.org/dc/elements/1.1/"
   xmlns:cc="http://creativecommons.org/ns#"
   xmlns:rdf="http://www.w3.org/1999/02/22-rdf-syntax-ns#"
   xmlns:svg="http://www.w3.org/2000/svg"
   xmlns="http://www.w3.org/2000/svg"
   viewBox="0 0 377.95334 188.976"
   height="188.976"
   width="377.95334"
   xml:space="preserve"
   id="svg2"
   version="1.1"><metadata
     id="metadata8"><rdf:RDF><cc:Work
         rdf:about=""><dc:format>image/svg+xml</dc:format><dc:type
           rdf:resource="http://purl.org/dc/dcmitype/StillImage" /></cc:Work></rdf:RDF></metadata><defs
     id="defs6"><clipPath
       id="clipPath18"
       clipPathUnits="userSpaceOnUse"><path
         id="path16"
         d="M 0,141.732 H 283.465 V 0 H 0 Z" /></clipPath></defs><g
     transform="matrix(1.3333333,0,0,-1.3333333,0,188.976)"
     id="g10"><g
       id="g12"><g
         clip-path="url(#clipPath18)"
         id="g14"><g
           transform="translate(133.8354,127.9945)"
           id="g20"><path
             id="path22"
             style="fill:#aaca62;fill-opacity:1;fill-rule:nonzero;stroke:none"
             d="m 0,0 c -21.783,0 -39.505,-17.722 -39.505,-39.504 0,-21.785 17.722,-39.506 39.505,-39.506 0.862,0 1.706,0.075 2.555,0.13 v 7.45 H 2.553 v 47.385 l -6.216,-4.203 v -43.085 c -1.719,0.196 -3.392,0.541 -5.019,1.001 v 35.827 l -6.215,-4.203 v -29.155 c -1.781,0.94 -3.457,2.043 -5.02,3.288 v 22.181 l -6.215,-4.202 v -11.406 c -3.715,5.232 -5.922,11.606 -5.922,18.498 0,17.674 14.379,32.053 32.054,32.053 17.675,0 32.055,-14.379 32.055,-32.053 0,-0.135 -0.018,-0.264 -0.02,-0.397 h 7.451 c 0.001,0.133 0.019,0.262 0.019,0.397 C 39.505,-17.722 21.784,0 0,0" /></g><g
           transform="translate(24.6021,32.1161)"
           id="g24"><path
             id="path26"
             style="fill:#3e3e40;fill-opacity:1;fill-rule:nonzero;stroke:none"
             d="m 0,0 c -0.264,0.308 -0.616,0.604 -1.055,0.89 -0.44,0.286 -0.935,0.544 -1.484,0.774 -0.55,0.232 -1.149,0.419 -1.796,0.562 -0.65,0.143 -1.326,0.213 -2.03,0.213 -1.825,0 -3.159,-0.34 -4.007,-1.021 -0.845,-0.683 -1.268,-1.616 -1.268,-2.803 0,-0.638 0.119,-1.167 0.363,-1.583 0.24,-0.418 0.621,-0.775 1.136,-1.072 0.517,-0.297 1.161,-0.555 1.931,-0.775 0.768,-0.22 1.68,-0.452 2.736,-0.692 1.209,-0.264 2.303,-0.567 3.281,-0.907 0.978,-0.341 1.814,-0.764 2.505,-1.27 0.694,-0.506 1.222,-1.121 1.584,-1.847 0.363,-0.725 0.545,-1.615 0.545,-2.67 0,-1.121 -0.22,-2.094 -0.66,-2.92 -0.44,-0.823 -1.039,-1.506 -1.797,-2.043 -0.759,-0.539 -1.655,-0.936 -2.688,-1.189 -1.034,-0.251 -2.155,-0.378 -3.364,-0.378 -1.803,0 -3.512,0.28 -5.127,0.84 -1.617,0.562 -3.083,1.38 -4.404,2.457 l 1.418,2.506 c 0.352,-0.374 0.808,-0.747 1.369,-1.121 0.562,-0.374 1.198,-0.709 1.914,-1.006 0.713,-0.297 1.483,-0.539 2.307,-0.724 0.825,-0.188 1.687,-0.282 2.589,-0.282 1.671,0 2.968,0.297 3.892,0.892 0.923,0.592 1.385,1.483 1.385,2.67 0,0.66 -0.149,1.216 -0.446,1.665 -0.296,0.451 -0.731,0.841 -1.302,1.171 -0.572,0.33 -1.281,0.621 -2.127,0.874 -0.847,0.253 -1.809,0.511 -2.886,0.775 -1.186,0.286 -2.232,0.594 -3.133,0.924 -0.902,0.329 -1.653,0.725 -2.258,1.187 -0.605,0.461 -1.061,1.022 -1.37,1.682 -0.308,0.658 -0.46,1.451 -0.46,2.373 0,1.121 0.209,2.112 0.625,2.968 0.418,0.859 1.002,1.583 1.749,2.178 0.748,0.593 1.637,1.039 2.672,1.334 1.033,0.298 2.153,0.447 3.362,0.447 1.583,0 3.012,-0.242 4.288,-0.726 1.274,-0.485 2.407,-1.132 3.396,-1.947 z" /></g><g
           transform="translate(46.8291,16.2538)"
           id="g28"><path
             id="path30"
             style="fill:#3e3e40;fill-opacity:1;fill-rule:nonzero;stroke:none"
             d="M 0,0 V -2.638 H -15.896 V 20.776 H -0.297 V 18.137 H -12.928 V 10.552 H -1.946 V 8.079 H -12.928 V 0 Z" /></g><g
           transform="translate(63.4824,22.7831)"
           id="g32"><path
             id="path34"
             style="fill:#3e3e40;fill-opacity:1;fill-rule:nonzero;stroke:none"
             d="M 0,0 -4.221,10.816 -8.574,0 Z m -5.474,14.247 h 2.506 L 6.596,-9.167 H 3.43 l -2.77,6.859 h -9.828 l -2.736,-6.859 h -3.166 z" /></g><g
           transform="translate(86.6304,32.1161)"
           id="g36"><path
             id="path38"
             style="fill:#3e3e40;fill-opacity:1;fill-rule:nonzero;stroke:none"
             d="m 0,0 c -0.264,0.308 -0.616,0.604 -1.055,0.89 -0.44,0.286 -0.935,0.544 -1.484,0.774 -0.55,0.232 -1.149,0.419 -1.796,0.562 -0.649,0.143 -1.326,0.213 -2.03,0.213 -1.824,0 -3.159,-0.34 -4.007,-1.021 -0.845,-0.683 -1.268,-1.616 -1.268,-2.803 0,-0.638 0.119,-1.167 0.363,-1.583 0.24,-0.418 0.621,-0.775 1.136,-1.072 0.518,-0.297 1.161,-0.555 1.931,-0.775 0.769,-0.22 1.68,-0.452 2.737,-0.692 1.208,-0.264 2.303,-0.567 3.28,-0.907 0.978,-0.341 1.814,-0.764 2.506,-1.27 0.693,-0.506 1.221,-1.121 1.583,-1.847 0.363,-0.725 0.545,-1.615 0.545,-2.67 0,-1.121 -0.22,-2.094 -0.66,-2.92 -0.44,-0.823 -1.039,-1.506 -1.797,-2.043 -0.759,-0.539 -1.655,-0.936 -2.688,-1.189 -1.034,-0.251 -2.155,-0.378 -3.363,-0.378 -1.804,0 -3.512,0.28 -5.128,0.84 -1.616,0.562 -3.083,1.38 -4.403,2.457 l 1.418,2.506 c 0.352,-0.374 0.807,-0.747 1.369,-1.121 0.561,-0.374 1.198,-0.709 1.913,-1.006 0.713,-0.297 1.484,-0.539 2.308,-0.724 0.825,-0.188 1.686,-0.282 2.589,-0.282 1.67,0 2.967,0.297 3.892,0.892 0.922,0.592 1.384,1.483 1.384,2.67 0,0.66 -0.149,1.216 -0.446,1.665 -0.295,0.451 -0.731,0.841 -1.302,1.171 -0.572,0.33 -1.28,0.621 -2.126,0.874 -0.848,0.253 -1.81,0.511 -2.886,0.775 -1.187,0.286 -2.233,0.594 -3.133,0.924 -0.903,0.329 -1.654,0.725 -2.259,1.187 -0.605,0.461 -1.061,1.022 -1.369,1.682 -0.308,0.658 -0.461,1.451 -0.461,2.373 0,1.121 0.209,2.112 0.626,2.968 0.418,0.859 1.001,1.583 1.748,2.178 0.748,0.593 1.638,1.039 2.672,1.334 1.033,0.298 2.154,0.447 3.362,0.447 1.583,0 3.012,-0.242 4.289,-0.726 1.273,-0.485 2.406,-1.132 3.395,-1.947 z" /></g><g
           transform="translate(94.4463,25.3221)"
           id="g40"><path
             id="path42"
             style="fill:#3e3e40;fill-opacity:1;fill-rule:nonzero;stroke:none"
             d="m 0,0 c 0,-1.187 0.192,-2.336 0.577,-3.446 0.385,-1.11 0.929,-2.094 1.633,-2.95 0.703,-0.859 1.55,-1.541 2.539,-2.045 0.988,-0.506 2.089,-0.76 3.297,-0.76 1.253,0 2.374,0.269 3.365,0.808 0.988,0.539 1.829,1.242 2.523,2.112 0.691,0.867 1.219,1.851 1.583,2.952 0.361,1.099 0.544,2.208 0.544,3.329 0,1.188 -0.194,2.336 -0.578,3.447 -0.385,1.11 -0.935,2.087 -1.649,2.935 C 13.119,7.228 12.272,7.903 11.294,8.41 10.316,8.914 9.233,9.167 8.046,9.167 6.794,9.167 5.673,8.905 4.683,8.377 3.694,7.849 2.853,7.157 2.16,6.299 1.468,5.441 0.934,4.463 0.561,3.363 0.187,2.265 0,1.143 0,0 m 8.014,-11.871 c -1.649,0 -3.149,0.335 -4.502,1.006 -1.352,0.67 -2.512,1.56 -3.479,2.671 -0.967,1.109 -1.715,2.38 -2.241,3.808 -0.529,1.429 -0.793,2.891 -0.793,4.386 0,1.561 0.28,3.056 0.841,4.484 0.561,1.429 1.336,2.694 2.325,3.793 0.989,1.099 2.16,1.973 3.512,2.622 1.351,0.648 2.82,0.974 4.403,0.974 1.649,0 3.144,-0.348 4.484,-1.039 1.341,-0.693 2.495,-1.601 3.463,-2.722 0.967,-1.12 1.715,-2.39 2.242,-3.808 0.528,-1.418 0.792,-2.865 0.792,-4.337 0,-1.561 -0.281,-3.056 -0.841,-4.485 -0.561,-1.429 -1.331,-2.686 -2.309,-3.776 -0.978,-1.088 -2.142,-1.957 -3.494,-2.604 -1.354,-0.65 -2.82,-0.973 -4.403,-0.973" /></g><g
           transform="translate(120.5952,31.4891)"
           id="g44"><path
             id="path46"
             style="fill:#3e3e40;fill-opacity:1;fill-rule:nonzero;stroke:none"
             d="M 0,0 V -17.873 H -2.968 V 5.541 h 2.309 l 14.51,-18.236 V 5.508 h 2.967 v -23.381 h -2.505 z" /></g><g
           transform="translate(142.3208,25.7889)"
           id="g48"><path
             id="path50"
             style="fill:#aaca62;fill-opacity:1;fill-rule:nonzero;stroke:none"
             d="m 0,0 c 0,1.535 0.278,3.054 0.833,4.556 0.555,1.499 1.365,2.84 2.429,4.022 1.063,1.182 2.363,2.139 3.9,2.872 1.536,0.733 3.284,1.099 5.246,1.099 2.316,0 4.319,-0.508 6.009,-1.526 1.69,-1.014 2.948,-2.338 3.776,-3.968 L 18.434,4.466 C 18.103,5.175 17.702,5.771 17.229,6.256 16.755,6.74 16.248,7.125 15.706,7.408 15.162,7.691 14.594,7.898 14.003,8.029 13.412,8.158 12.833,8.225 12.266,8.225 11.037,8.225 9.968,7.976 9.058,7.479 8.148,6.982 7.391,6.34 6.79,5.547 6.186,4.755 5.731,3.857 5.425,2.853 5.117,1.849 4.962,0.851 4.962,-0.144 c 0,-1.109 0.178,-2.178 0.534,-3.206 0.353,-1.028 0.855,-1.933 1.505,-2.713 0.65,-0.78 1.431,-1.406 2.341,-1.878 0.908,-0.474 1.907,-0.709 2.994,-0.709 0.568,0 1.16,0.07 1.774,0.212 0.614,0.143 1.199,0.366 1.754,0.674 0.555,0.307 1.069,0.702 1.542,1.187 0.473,0.484 0.85,1.069 1.136,1.756 l 4.004,-2.305 c -0.402,-0.946 -0.974,-1.779 -1.719,-2.499 -0.744,-0.722 -1.583,-1.33 -2.517,-1.827 -0.934,-0.495 -1.932,-0.874 -2.994,-1.133 -1.065,-0.261 -2.106,-0.39 -3.121,-0.39 -1.796,0 -3.44,0.377 -4.928,1.133 -1.488,0.756 -2.771,1.743 -3.847,2.96 C 2.345,-7.663 1.507,-6.281 0.904,-4.733 0.302,-3.185 0,-1.608 0,0" /></g><g
           transform="translate(171.6055,38.1962)"
           id="g52"><path
             id="path54"
             style="fill:#3e3e40;fill-opacity:1;fill-rule:nonzero;stroke:none"
             d="M 0,0 6.204,-12.124 12.514,0 h 5.282 L 8.65,-16.378 V -25.17 H 3.793 v 8.862 L -5.318,0 Z" /></g><g
           transform="translate(188.9404,25.7889)"
           id="g56"><path
             id="path58"
             style="fill:#3e3e40;fill-opacity:1;fill-rule:nonzero;stroke:none"
             d="m 0,0 c 0,1.535 0.278,3.054 0.833,4.556 0.555,1.499 1.364,2.84 2.429,4.022 1.062,1.182 2.362,2.139 3.9,2.872 1.535,0.733 3.283,1.099 5.245,1.099 2.318,0 4.32,-0.508 6.01,-1.526 1.689,-1.014 2.947,-2.338 3.775,-3.968 L 18.434,4.466 c -0.331,0.709 -0.733,1.305 -1.205,1.79 -0.474,0.484 -0.982,0.869 -1.524,1.152 -0.544,0.283 -1.111,0.49 -1.702,0.621 -0.591,0.129 -1.17,0.196 -1.737,0.196 -1.23,0 -2.298,-0.249 -3.208,-0.746 C 8.147,6.982 7.392,6.34 6.789,5.547 6.186,4.755 5.731,3.857 5.425,2.853 5.116,1.849 4.963,0.851 4.963,-0.144 c 0,-1.109 0.178,-2.178 0.532,-3.206 0.355,-1.028 0.856,-1.933 1.506,-2.713 0.649,-0.78 1.431,-1.406 2.341,-1.878 0.909,-0.474 1.907,-0.709 2.995,-0.709 0.567,0 1.158,0.07 1.772,0.212 0.616,0.143 1.2,0.366 1.755,0.674 0.555,0.307 1.069,0.702 1.542,1.187 0.473,0.484 0.851,1.069 1.135,1.756 l 4.005,-2.305 c -0.402,-0.946 -0.975,-1.779 -1.72,-2.499 -0.743,-0.722 -1.583,-1.33 -2.516,-1.827 -0.934,-0.495 -1.932,-0.874 -2.995,-1.133 -1.064,-0.261 -2.104,-0.39 -3.12,-0.39 -1.797,0 -3.439,0.377 -4.928,1.133 -1.489,0.756 -2.771,1.743 -3.846,2.96 C 2.346,-7.663 1.508,-6.281 0.904,-4.733 0.302,-3.185 0,-1.608 0,0" /></g><g
           transform="translate(214.7832,13.0262)"
           id="g60"><path
             id="path62"
             style="fill:#3e3e40;fill-opacity:1;fill-rule:nonzero;stroke:none"
             d="M 0,0 V 25.17 H 4.892 V 4.29 H 17.725 V 0 Z" /></g><g
           transform="translate(252.9619,17.3163)"
           id="g64"><path
             id="path66"
             style="fill:#3e3e40;fill-opacity:1;fill-rule:nonzero;stroke:none"
             d="m 0,0 v -4.29 h -17.477 v 25.17 h 17.159 v -4.29 h -12.267 v -6.062 h 10.6 v -3.97 h -10.6 V 0 Z" /></g><g
           transform="translate(271.2549,31.6014)"
           id="g68"><path
             id="path70"
             style="fill:#3e3e40;fill-opacity:1;fill-rule:nonzero;stroke:none"
             d="m 0,0 c -0.165,0.165 -0.467,0.391 -0.904,0.675 -0.437,0.283 -0.968,0.561 -1.595,0.833 -0.626,0.27 -1.307,0.501 -2.038,0.69 -0.734,0.19 -1.478,0.284 -2.234,0.284 -1.346,0 -2.351,-0.248 -3.013,-0.745 -0.661,-0.495 -0.991,-1.193 -0.991,-2.091 0,-0.52 0.122,-0.952 0.371,-1.293 0.248,-0.344 0.607,-0.645 1.081,-0.906 0.473,-0.259 1.069,-0.495 1.79,-0.709 0.721,-0.212 1.554,-0.436 2.5,-0.673 1.227,-0.331 2.345,-0.684 3.349,-1.063 1.005,-0.378 1.855,-0.851 2.553,-1.418 0.696,-0.567 1.235,-1.247 1.613,-2.037 0.377,-0.793 0.568,-1.768 0.568,-2.926 0,-1.348 -0.255,-2.499 -0.763,-3.457 -0.51,-0.957 -1.193,-1.73 -2.056,-2.321 -0.863,-0.591 -1.856,-1.022 -2.977,-1.294 -1.124,-0.272 -2.3,-0.407 -3.527,-0.407 -1.892,0 -3.759,0.283 -5.603,0.85 -1.843,0.568 -3.498,1.371 -4.963,2.41 l 2.163,4.219 c 0.212,-0.212 0.596,-0.49 1.153,-0.833 0.554,-0.343 1.21,-0.685 1.966,-1.028 0.756,-0.343 1.595,-0.632 2.518,-0.867 0.922,-0.238 1.866,-0.356 2.836,-0.356 2.694,0 4.042,0.863 4.042,2.587 0,0.544 -0.154,1.005 -0.463,1.384 -0.307,0.377 -0.743,0.709 -1.311,0.992 -0.567,0.284 -1.252,0.543 -2.056,0.779 -0.803,0.238 -1.7,0.497 -2.694,0.782 -1.206,0.33 -2.252,0.69 -3.137,1.08 -0.887,0.389 -1.626,0.851 -2.215,1.382 -0.592,0.532 -1.035,1.147 -1.33,1.844 -0.296,0.696 -0.444,1.53 -0.444,2.5 0,1.275 0.236,2.409 0.709,3.404 0.473,0.991 1.129,1.818 1.968,2.48 0.838,0.661 1.813,1.163 2.924,1.507 1.111,0.342 2.305,0.514 3.581,0.514 1.774,0 3.403,-0.278 4.892,-0.833 1.489,-0.556 2.789,-1.211 3.9,-1.968 z" /></g></g></g></g></svg>